/* XPM */
static char * D:\1euro\images\bitcoin32_xpm[] = {
"32 32 214 2",
"  	c None",
". 	c #484848",
"+ 	c #494949",
"@ 	c #414141",
"# 	c #434343",
"$ 	c #454545",
"% 	c #4C4C4C",
"& 	c #555555",
"* 	c #4A4A4A",
"= 	c #444444",
"- 	c #404040",
"; 	c #424242",
"> 	c #525252",
", 	c #868686",
"' 	c #A8A8A8",
") 	c #C3C3C3",
"! 	c #D8D8D8",
"~ 	c #DADADA",
"{ 	c #D7D7D7",
"] 	c #C2C2C2",
"^ 	c #A7A7A7",
"/ 	c #838383",
"( 	c #4B4B4B",
"_ 	c #3F3F3F",
": 	c #3D3D3D",
"< 	c #979797",
"[ 	c #CFCFCF",
"} 	c #DBDBDB",
"| 	c #E3E3E3",
"1 	c #EAEAEA",
"2 	c #F2F2F2",
"3 	c #F6F6F6",
"4 	c #F1F1F1",
"5 	c #E9E9E9",
"6 	c #E0E0E0",
"7 	c #CBCBCB",
"8 	c #939393",
"9 	c #3E3E3E",
"0 	c #767676",
"a 	c #C7C7C7",
"b 	c #DCDCDC",
"c 	c #FEFEFE",
"d 	c #E1E1E1",
"e 	c #BBBBBB",
"f 	c #BEBEBE",
"g 	c #B7B7B7",
"h 	c #BABABA",
"i 	c #FCFCFC",
"j 	c #E7E7E7",
"k 	c #D9D9D9",
"l 	c #6E6E6E",
"m 	c #E5E5E5",
"n 	c #C6C6C6",
"o 	c #B3B3B3",
"p 	c #CDCDCD",
"q 	c #EFEFEF",
"r 	c #E6E6E6",
"s 	c #F5F5F5",
"t 	c #D1D1D1",
"u 	c #FBFBFB",
"v 	c #D4D4D4",
"w 	c #7F7F7F",
"x 	c #F4F4F4",
"y 	c #E8E8E8",
"z 	c #E4E4E4",
"A 	c #ADADAD",
"B 	c #D6D6D6",
"C 	c #808080",
"D 	c #3C3C3C",
"E 	c #757575",
"F 	c #B2B2B2",
"G 	c #EDEDED",
"H 	c #9A9A9A",
"I 	c #8A8A8A",
"J 	c #CACACA",
"K 	c #B0B0B0",
"L 	c #ECECEC",
"M 	c #D3D3D3",
"N 	c #6B6B6B",
"O 	c #565656",
"P 	c #C5C5C5",
"Q 	c #B1B1B1",
"R 	c #E2E2E2",
"S 	c #696969",
"T 	c #CCCCCC",
"U 	c #7A7A7A",
"V 	c #EBEBEB",
"W 	c #F8F8F8",
"X 	c #DFDFDF",
"Y 	c #BFBFBF",
"Z 	c #474747",
"` 	c #505050",
" .	c #959595",
"..	c #727272",
"+.	c #C0C0C0",
"@.	c #BDBDBD",
"#.	c #878787",
"$.	c #F0F0F0",
"%.	c #F3F3F3",
"&.	c #8F8F8F",
"*.	c #535353",
"=.	c #C8C8C8",
"-.	c #EEEEEE",
";.	c #A9A9A9",
">.	c #858585",
",.	c #FDFDFD",
"'.	c #AFAFAF",
").	c #D0D0D0",
"!.	c #BCBCBC",
"~.	c #F7F7F7",
"{.	c #D5D5D5",
"].	c #777777",
"^.	c #A5A5A5",
"/.	c #B8B8B8",
"(.	c #CECECE",
"_.	c #9E9E9E",
":.	c #B4B4B4",
"<.	c #C4C4C4",
"[.	c #B6B6B6",
"}.	c #4F4F4F",
"|.	c #545454",
"1.	c #C1C1C1",
"2.	c #C4BFBF",
"3.	c #D6D3D3",
"4.	c #BDB6B6",
"5.	c #E6E4E4",
"6.	c #E6E5E5",
"7.	c #B8B0B0",
"8.	c #B3ABAB",
"9.	c #C7C1C1",
"0.	c #A59B9B",
"a.	c #EBEAEA",
"b.	c #B9B2B2",
"c.	c #C4BDBD",
"d.	c #A39999",
"e.	c #D2CFCF",
"f.	c #9B9090",
"g.	c #978B8B",
"h.	c #998D8D",
"i.	c #988C8C",
"j.	c #A09595",
"k.	c #EDECEC",
"l.	c #B4ACAC",
"m.	c #CFCACA",
"n.	c #C9C4C4",
"o.	c #4D4D4D",
"p.	c #D2D2D2",
"q.	c #CAC4C4",
"r.	c #D6D2D2",
"s.	c #BEB7B7",
"t.	c #B2AAAA",
"u.	c #CBC7C7",
"v.	c #B7B0B0",
"w.	c #B1A9A9",
"x.	c #B8B1B1",
"y.	c #CAC6C6",
"z.	c #464646",
"A.	c #CDC7C7",
"B.	c #DCD9D9",
"C.	c #E8E6E6",
"D.	c #A19797",
"E.	c #A9A0A0",
"F.	c #BFB9B9",
"G.	c #BDB7B7",
"H.	c #A49999",
"I.	c #ECEBEB",
"J.	c #C4BEBE",
"K.	c #A3A3A3",
"L.	c #E2E0E0",
"M.	c #BAB2B2",
"N.	c #B3ACAC",
"O.	c #ACA3A3",
"P.	c #AAA0A0",
"Q.	c #BFB8B8",
"R.	c #B6AEAE",
"S.	c #AFA9A9",
"T.	c #9B9B9B",
"U.	c #FAFAFA",
"V.	c #707070",
"W.	c #E0DEDE",
"X.	c #9D9292",
"Y.	c #9E9393",
"Z.	c #919191",
"`.	c #F9F9F9",
" +	c #AEAEAE",
".+	c #B1A8A8",
"++	c #F0EFEF",
"@+	c #C2BCBC",
"#+	c #A29898",
"$+	c #D8D5D5",
"%+	c #C5C0C0",
"&+	c #B0A8A8",
"*+	c #E8E7E7",
"=+	c #C0BABA",
"-+	c #C5BEBE",
";+	c #E7E6E6",
">+	c #CCC7C7",
",+	c #D8D6D6",
"'+	c #6C6C6C",
")+	c #A49A9A",
"!+	c #ADA4A4",
"~+	c #D5D2D2",
"{+	c #CDC8C8",
"]+	c #5E5E5E",
"^+	c #7D7D7D",
"/+	c #B5B5B5",
"(+	c #DDDDDD",
"_+	c #737373",
":+	c #686868",
"<+	c #5D5D5D",
"[+	c #8D8D8D",
"}+	c #747474",
"|+	c #9F9F9F",
"1+	c #3B3B3B",
"                              . +                               ",
"                      @ # $ % & & * = @ -                       ",
"                ; @ > , ' ) ! ~ ~ { ] ^ / ( _ *                 ",
"              : & < [ } | 1 2 3 3 4 5 6 ~ 7 8 % 9               ",
"            ; 0 a b 1 c d e f g h f h | i j k ) l :             ",
"          = , ! m c n o p q j r j 5 s t g p u d v w :           ",
"        # , } 1 x ' y m j 1 5 j j r j | z d A s r B C D         ",
"      : E ! 5 5 F G 6 | y b o H } I J j m z G K L z M N -       ",
"    @ O P m s Q r R R z z o S T 5 , U y L L 1 V o W X Y Z `     ",
"    #  .} c ' y m y j z R ..+.' @.@.#.A $.%.2 V G o W B &._     ",
"    *.p 5 =.6 | V G $.2 -.V y h ;.X j q -.-.4 q 5 6 M | P =     ",
"  - >.~ ,.Q m r V q q V 1 5 e '.).;.k V q L q 4 2 5 !.~.{.].;   ",
"  $ ^.d m 7 | r j 5 z 6 | /.A L L ).;.6 $.-.2 3 3 -.(.1 b _._   ",
"  . Y y Y G R j y y m r V :.r 1 q 2 J { q $.q q q 5 4 <.R [.-   ",
"  }.M q P V 5 G $.$.q q $.-.1 V -.%.x $.L -.4 q G G V J j 7 9   ",
". |.{ x 1.V L G 2.3.G 4 4.5.6.7.2 8.9.V 0.a.W b.W $.q J L [ $   ",
"Z > ! %.1.j 5 c.d.e.G x q f.g.x $.h.i.q j.k.W l.m.4.n.J L (.$   ",
"  o.p.-.<.5 y -.q.r.3 ~.x s.t.q y u.v.6.j.-.3 w.2 x.y.p j J :   ",
"  z.@.r ] V m q A.B.W x C.D.0.~.E.s.F.G.H.I.s 7.n.J.%.a 6 :._   ",
"  # K.X j T j G r.L.q L x.q 4 M.8.L q N.m O.P.q Q.R.S.L k T._   ",
"  - C ! U.e 1 r L -.V y L $.4 q 5 1 1 1 G $.3 s q V ) x v V.z.  ",
"    % =.r p.X X | 1 1 V W.X.Y.I.L G -.L V q %.4 1 m ! 6 ] 9     ",
"    _ Z.k `. +z 6 1 -.x .+4 ++@+X.#+$+%+$.4 L j -.@.%.M #.@     ",
"    + % +.6 ~.Q 1 y V 2 &+2 *+=+-+;+>+,+5 j 5 1 f s } !.9       ",
"      9 '+M m G :.r | L *+)+!+4 g.d.~+{+z R L +.G 6 p ]+z.      ",
"        : ^+B z W /+(+m m y 1 j y L G V -.m @.s d t _+_         ",
"          D ^+p.X W {.f 7 -.y z R z V [ P ! %.b p ..D           ",
"            D :+Y { | W 1 P J P ) J =.V s d v !.<+-             ",
"              - = [+n B b | 5 G G y R ~ v ) #.: .               ",
"                  _ ; }+|+g p ).).T [.T.l : @                   ",
"                      $ _ 9 D ; @ 1+: - +                       ",
"                                                                "};
